<svg width="100" height="18" viewBox="0 0 100 18" fill="none" xmlns="http://www.w3.org/2000/svg">
<g clip-path="url(#clip0_20_2)">
<rect width="100" height="18" fill="white"/>
<path d="M0.8675 17V1.25H3.8825L10.5875 12.365H8.99L15.5825 1.25H18.575L18.62 17H15.2L15.1775 6.4925H15.8075L10.5425 15.335H8.9L3.5225 6.4925H4.2875V17H0.8675ZM29.9393 17.135C28.7543 17.135 27.6518 16.94 26.6318 16.55C25.6268 16.145 24.7493 15.5825 23.9993 14.8625C23.2643 14.1275 22.6868 13.28 22.2668 12.32C21.8618 11.345 21.6593 10.28 21.6593 9.125C21.6593 7.97 21.8618 6.9125 22.2668 5.9525C22.6868 4.9775 23.2643 4.13 23.9993 3.41C24.7493 2.675 25.6268 2.1125 26.6318 1.7225C27.6368 1.3175 28.7393 1.115 29.9393 1.115C31.1243 1.115 32.2193 1.3175 33.2243 1.7225C34.2293 2.1125 35.0993 2.6675 35.8343 3.3875C36.5843 4.1075 37.1618 4.955 37.5668 5.93C37.9868 6.905 38.1968 7.97 38.1968 9.125C38.1968 10.28 37.9868 11.345 37.5668 12.32C37.1618 13.295 36.5843 14.1425 35.8343 14.8625C35.0993 15.5825 34.2293 16.145 33.2243 16.55C32.2193 16.94 31.1243 17.135 29.9393 17.135ZM29.9393 15.65C30.8843 15.65 31.7543 15.4925 32.5493 15.1775C33.3593 14.8475 34.0568 14.39 34.6418 13.805C35.2418 13.205 35.7068 12.515 36.0368 11.735C36.3668 10.94 36.5318 10.07 36.5318 9.125C36.5318 8.18 36.3668 7.3175 36.0368 6.5375C35.7068 5.7425 35.2418 5.0525 34.6418 4.4675C34.0568 3.8675 33.3593 3.41 32.5493 3.095C31.7543 2.765 30.8843 2.6 29.9393 2.6C28.9943 2.6 28.1168 2.765 27.3068 3.095C26.4968 3.41 25.7918 3.8675 25.1918 4.4675C24.6068 5.0525 24.1418 5.7425 23.7968 6.5375C23.4668 7.3175 23.3018 8.18 23.3018 9.125C23.3018 10.055 23.4668 10.9175 23.7968 11.7125C24.1418 12.5075 24.6068 13.205 25.1918 13.805C25.7918 14.39 26.4968 14.8475 27.3068 15.1775C28.1168 15.4925 28.9943 15.65 29.9393 15.65ZM41.9288 17V1.25H48.3413C50.0213 1.25 51.4913 1.5875 52.7513 2.2625C54.0263 2.9225 55.0163 3.845 55.7213 5.03C56.4263 6.215 56.7788 7.58 56.7788 9.125C56.7788 10.67 56.4263 12.035 55.7213 13.22C55.0163 14.405 54.0263 15.335 52.7513 16.01C51.4913 16.67 50.0213 17 48.3413 17H41.9288ZM43.5938 15.56H48.2513C49.6463 15.56 50.8538 15.29 51.8738 14.75C52.9088 14.195 53.7113 13.4375 54.2813 12.4775C54.8513 11.5025 55.1363 10.385 55.1363 9.125C55.1363 7.85 54.8513 6.7325 54.2813 5.7725C53.7113 4.8125 52.9088 4.0625 51.8738 3.5225C50.8538 2.9675 49.6463 2.69 48.2513 2.69H43.5938V15.56ZM57.0076 17.135C55.8226 17.135 54.7276 16.94 53.7226 16.55C52.7176 16.145 51.8476 15.5825 51.1126 14.8625C50.3776 14.1425 49.8001 13.295 49.3801 12.32C48.9751 11.345 48.7726 10.28 48.7726 9.125C48.7726 7.97 48.9751 6.905 49.3801 5.93C49.8001 4.955 50.3776 4.1075 51.1126 3.3875C51.8626 2.6675 52.7401 2.1125 53.7451 1.7225C54.7501 1.3175 55.8451 1.115 57.0301 1.115C58.1701 1.115 59.2426 1.31 60.2476 1.7C61.2526 2.075 62.1001 2.645 62.7901 3.41L61.7326 4.4675C61.0876 3.8075 60.3751 3.335 59.5951 3.05C58.8151 2.75 57.9751 2.6 57.0751 2.6C56.1301 2.6 55.2526 2.765 54.4426 3.095C53.6326 3.41 52.9276 3.8675 52.3276 4.4675C51.7276 5.0525 51.2551 5.7425 50.9101 6.5375C50.5801 7.3175 50.4151 8.18 50.4151 9.125C50.4151 10.07 50.5801 10.94 50.9101 11.735C51.2551 12.515 51.7276 13.205 52.3276 13.805C52.9276 14.39 53.6326 14.8475 54.4426 15.1775C55.2526 15.4925 56.1301 15.65 57.0751 15.65C57.9751 15.65 58.8151 15.5 59.5951 15.2C60.3751 14.9 61.0876 14.42 61.7326 13.76L62.7901 14.8175C62.1001 15.5825 61.2526 16.16 60.2476 16.55C59.2426 16.94 58.1626 17.135 57.0076 17.135ZM72.8949 17.135C71.7099 17.135 70.6074 16.94 69.5874 16.55C68.5824 16.145 67.7049 15.5825 66.9549 14.8625C66.2199 14.1275 65.6424 13.28 65.2224 12.32C64.8174 11.345 64.6149 10.28 64.6149 9.125C64.6149 7.97 64.8174 6.9125 65.2224 5.9525C65.6424 4.9775 66.2199 4.13 66.9549 3.41C67.7049 2.675 68.5824 2.1125 69.5874 1.7225C70.5924 1.3175 71.6949 1.115 72.8949 1.115C74.0799 1.115 75.1749 1.3175 76.1799 1.7225C77.1849 2.1125 78.0549 2.6675 78.7899 3.3875C79.5399 4.1075 80.1174 4.955 80.5224 5.93C80.9424 6.905 81.1524 7.97 81.1524 9.125C81.1524 10.28 80.9424 11.345 80.5224 12.32C80.1174 13.295 79.5399 14.1425 78.7899 14.8625C78.0549 15.5825 77.1849 16.145 76.1799 16.55C75.1749 16.94 74.0799 17.135 72.8949 17.135ZM72.8949 15.65C73.8399 15.65 74.7099 15.4925 75.5049 15.1775C76.3149 14.8475 77.0124 14.39 77.5974 13.805C78.1974 13.205 78.6624 12.515 78.9924 11.735C79.3224 10.94 79.4874 10.07 79.4874 9.125C79.4874 8.18 79.3224 7.3175 78.9924 6.5375C78.6624 5.7425 78.1974 5.0525 77.5974 4.4675C77.0124 3.8675 76.3149 3.41 75.5049 3.095C74.7099 2.765 73.8399 2.6 72.8949 2.6C71.9499 2.6 71.0724 2.765 70.2624 3.095C69.4524 3.41 68.7474 3.8675 68.1474 4.4675C67.5624 5.0525 67.0974 5.7425 66.7524 6.5375C66.4224 7.3175 66.2574 8.18 66.2574 9.125C66.2574 10.055 66.4224 10.9175 66.7524 11.7125C67.0974 12.5075 67.5624 13.205 68.1474 13.805C68.7474 14.39 69.4524 14.8475 70.2624 15.1775C71.0724 15.4925 71.9499 15.65 72.8949 15.65ZM84.8844 17V1.25H86.2569L97.1244 14.93H96.4044V1.25H98.0469V17H96.6744L85.8294 3.32H86.5494V17H84.8844Z" fill="black"/>
</g>
<defs>
<clipPath id="clip0_20_2">
<rect width="100" height="18" fill="none"/>
</clipPath>
</defs>
</svg>
