<svg width="99" height="17" viewBox="0 0 99 17" fill="none" xmlns="http://www.w3.org/2000/svg">
<path d="M0.8675 16V0.249999H3.8825L10.5875 11.365H8.99L15.5825 0.249999H18.575L18.62 16H15.2L15.1775 5.4925H15.8075L10.5425 14.335H8.9L3.5225 5.4925H4.2875V16H0.8675ZM29.9393 16.135C28.7543 16.135 27.6518 15.94 26.6318 15.55C25.6268 15.145 24.7493 14.5825 23.9993 13.8625C23.2643 13.1275 22.6868 12.28 22.2668 11.32C21.8618 10.345 21.6593 9.28 21.6593 8.125C21.6593 6.97 21.8618 5.9125 22.2668 4.9525C22.6868 3.9775 23.2643 3.13 23.9993 2.41C24.7493 1.675 25.6268 1.1125 26.6318 0.7225C27.6368 0.317499 28.7393 0.114999 29.9393 0.114999C31.1243 0.114999 32.2193 0.317499 33.2243 0.7225C34.2293 1.1125 35.0993 1.6675 35.8343 2.3875C36.5843 3.1075 37.1618 3.955 37.5668 4.93C37.9868 5.905 38.1968 6.97 38.1968 8.125C38.1968 9.28 37.9868 10.345 37.5668 11.32C37.1618 12.295 36.5843 13.1425 35.8343 13.8625C35.0993 14.5825 34.2293 15.145 33.2243 15.55C32.2193 15.94 31.1243 16.135 29.9393 16.135ZM29.9393 14.65C30.8843 14.65 31.7543 14.4925 32.5493 14.1775C33.3593 13.8475 34.0568 13.39 34.6418 12.805C35.2418 12.205 35.7068 11.515 36.0368 10.735C36.3668 9.94 36.5318 9.07 36.5318 8.125C36.5318 7.18 36.3668 6.3175 36.0368 5.5375C35.7068 4.7425 35.2418 4.0525 34.6418 3.4675C34.0568 2.8675 33.3593 2.41 32.5493 2.095C31.7543 1.765 30.8843 1.6 29.9393 1.6C28.9943 1.6 28.1168 1.765 27.3068 2.095C26.4968 2.41 25.7918 2.8675 25.1918 3.4675C24.6068 4.0525 24.1418 4.7425 23.7968 5.5375C23.4668 6.3175 23.3018 7.18 23.3018 8.125C23.3018 9.055 23.4668 9.9175 23.7968 10.7125C24.1418 11.5075 24.6068 12.205 25.1918 12.805C25.7918 13.39 26.4968 13.8475 27.3068 14.1775C28.1168 14.4925 28.9943 14.65 29.9393 14.65ZM41.9288 16V0.249999H48.3413C50.0213 0.249999 51.4913 0.587499 52.7513 1.2625C54.0263 1.9225 55.0163 2.845 55.7213 4.03C56.4263 5.215 56.7788 6.58 56.7788 8.125C56.7788 9.67 56.4263 11.035 55.7213 12.22C55.0163 13.405 54.0263 14.335 52.7513 15.01C51.4913 15.67 50.0213 16 48.3413 16H41.9288ZM43.5938 14.56H48.2513C49.6463 14.56 50.8538 14.29 51.8738 13.75C52.9088 13.195 53.7113 12.4375 54.2813 11.4775C54.8513 10.5025 55.1363 9.385 55.1363 8.125C55.1363 6.85 54.8513 5.7325 54.2813 4.7725C53.7113 3.8125 52.9088 3.0625 51.8738 2.5225C50.8538 1.9675 49.6463 1.69 48.2513 1.69H43.5938V14.56ZM57.0076 16.135C55.8226 16.135 54.7276 15.94 53.7226 15.55C52.7176 15.145 51.8476 14.5825 51.1126 13.8625C50.3776 13.1425 49.8001 12.295 49.3801 11.32C48.9751 10.345 48.7726 9.28 48.7726 8.125C48.7726 6.97 48.9751 5.905 49.3801 4.93C49.8001 3.955 50.3776 3.1075 51.1126 2.3875C51.8626 1.6675 52.7401 1.1125 53.7451 0.7225C54.7501 0.317499 55.8451 0.114999 57.0301 0.114999C58.1701 0.114999 59.2426 0.309999 60.2476 0.7C61.2526 1.075 62.1001 1.645 62.7901 2.41L61.7326 3.4675C61.0876 2.8075 60.3751 2.335 59.5951 2.05C58.8151 1.75 57.9751 1.6 57.0751 1.6C56.1301 1.6 55.2526 1.765 54.4426 2.095C53.6326 2.41 52.9276 2.8675 52.3276 3.4675C51.7276 4.0525 51.2551 4.7425 50.9101 5.5375C50.5801 6.3175 50.4151 7.18 50.4151 8.125C50.4151 9.07 50.5801 9.94 50.9101 10.735C51.2551 11.515 51.7276 12.205 52.3276 12.805C52.9276 13.39 53.6326 13.8475 54.4426 14.1775C55.2526 14.4925 56.1301 14.65 57.0751 14.65C57.9751 14.65 58.8151 14.5 59.5951 14.2C60.3751 13.9 61.0876 13.42 61.7326 12.76L62.7901 13.8175C62.1001 14.5825 61.2526 15.16 60.2476 15.55C59.2426 15.94 58.1626 16.135 57.0076 16.135ZM72.8949 16.135C71.7099 16.135 70.6074 15.94 69.5874 15.55C68.5824 15.145 67.7049 14.5825 66.9549 13.8625C66.2199 13.1275 65.6424 12.28 65.2224 11.32C64.8174 10.345 64.6149 9.28 64.6149 8.125C64.6149 6.97 64.8174 5.9125 65.2224 4.9525C65.6424 3.9775 66.2199 3.13 66.9549 2.41C67.7049 1.675 68.5824 1.1125 69.5874 0.7225C70.5924 0.317499 71.6949 0.114999 72.8949 0.114999C74.0799 0.114999 75.1749 0.317499 76.1799 0.7225C77.1849 1.1125 78.0549 1.6675 78.7899 2.3875C79.5399 3.1075 80.1174 3.955 80.5224 4.93C80.9424 5.905 81.1524 6.97 81.1524 8.125C81.1524 9.28 80.9424 10.345 80.5224 11.32C80.1174 12.295 79.5399 13.1425 78.7899 13.8625C78.0549 14.5825 77.1849 15.145 76.1799 15.55C75.1749 15.94 74.0799 16.135 72.8949 16.135ZM72.8949 14.65C73.8399 14.65 74.7099 14.4925 75.5049 14.1775C76.3149 13.8475 77.0124 13.39 77.5974 12.805C78.1974 12.205 78.6624 11.515 78.9924 10.735C79.3224 9.94 79.4874 9.07 79.4874 8.125C79.4874 7.18 79.3224 6.3175 78.9924 5.5375C78.6624 4.7425 78.1974 4.0525 77.5974 3.4675C77.0124 2.8675 76.3149 2.41 75.5049 2.095C74.7099 1.765 73.8399 1.6 72.8949 1.6C71.9499 1.6 71.0724 1.765 70.2624 2.095C69.4524 2.41 68.7474 2.8675 68.1474 3.4675C67.5624 4.0525 67.0974 4.7425 66.7524 5.5375C66.4224 6.3175 66.2574 7.18 66.2574 8.125C66.2574 9.055 66.4224 9.9175 66.7524 10.7125C67.0974 11.5075 67.5624 12.205 68.1474 12.805C68.7474 13.39 69.4524 13.8475 70.2624 14.1775C71.0724 14.4925 71.9499 14.65 72.8949 14.65ZM84.1869 16V0.249999H87.2019L96.4944 11.59H95.0319V0.249999H98.6319V16H95.6394L86.3244 4.66H87.7869V16H84.1869Z" fill="black"/>
</svg>
